<svg id="Layer_1" data-name="Layer 1" xmlns="http://www.w3.org/2000/svg" width="1920" height="1080" viewBox="0 0 1920 1080">
  <defs>
    <style>
      .cls-1 {
        fill: none;
        stroke: #333;
        stroke-miterlimit: 10;
        stroke-width: 4px;
      }
    </style>
  </defs>
  <rect width="1920" height="1080"/>
  <line class="cls-1" x1="33.71" y2="32.76"/>
  <line class="cls-1" x1="58.03" y2="56.4"/>
  <line class="cls-1" x1="82.35" y2="80.03"/>
  <line class="cls-1" x1="106.66" y2="103.65"/>
  <line class="cls-1" x1="130.98" y2="127.29"/>
  <line class="cls-1" x1="155.29" y2="150.92"/>
  <line class="cls-1" x1="179.62" y2="174.55"/>
  <line class="cls-1" x1="203.93" y2="198.18"/>
  <line class="cls-1" x1="228.25" y2="221.82"/>
  <line class="cls-1" x1="252.56" y2="245.44"/>
  <line class="cls-1" x1="276.88" y2="269.08"/>
  <line class="cls-1" x1="301.2" y2="292.71"/>
  <line class="cls-1" x1="325.51" y2="316.33"/>
  <line class="cls-1" x1="349.83" y2="339.97"/>
  <line class="cls-1" x1="374.14" y2="363.59"/>
  <line class="cls-1" x1="398.46" y2="387.23"/>
  <line class="cls-1" x1="422.78" y2="410.86"/>
  <line class="cls-1" x1="447.09" y2="434.49"/>
  <line class="cls-1" x1="471.41" y2="458.12"/>
  <line class="cls-1" x1="495.72" y2="481.75"/>
  <line class="cls-1" x1="520.05" y2="505.39"/>
  <line class="cls-1" x1="544.35" y2="529.01"/>
  <line class="cls-1" x1="568.68" y2="552.65"/>
  <line class="cls-1" x1="592.99" y2="576.27"/>
  <line class="cls-1" x1="617.31" y2="599.91"/>
  <line class="cls-1" x1="641.62" y2="623.54"/>
  <line class="cls-1" x1="665.94" y2="647.17"/>
  <line class="cls-1" x1="690.26" y2="670.8"/>
  <line class="cls-1" x1="714.57" y2="694.43"/>
  <line class="cls-1" x1="738.9" y2="718.07"/>
  <line class="cls-1" x1="763.2" y2="741.69"/>
  <line class="cls-1" x1="787.52" y2="765.33"/>
  <line class="cls-1" x1="811.84" y2="788.95"/>
  <line class="cls-1" x1="836.16" y2="812.59"/>
  <line class="cls-1" x1="860.47" y2="836.22"/>
  <line class="cls-1" x1="884.79" y2="859.84"/>
  <line class="cls-1" x1="909.11" y2="883.48"/>
  <line class="cls-1" x1="933.42" y2="907.11"/>
  <line class="cls-1" x1="957.74" y2="930.75"/>
  <line class="cls-1" x1="982.05" y2="954.37"/>
  <line class="cls-1" x1="1006.37" y2="978.01"/>
  <line class="cls-1" x1="1030.69" y2="1001.63"/>
  <line class="cls-1" x1="1055" y2="1025.27"/>
  <line class="cls-1" x1="1079.32" y2="1048.9"/>
  <line class="cls-1" x1="1103.64" y2="1072.52"/>
  <line class="cls-1" x1="1127.96" x2="16.63" y2="1080"/>
  <line class="cls-1" x1="1152.26" x2="40.94" y2="1080"/>
  <line class="cls-1" x1="1176.58" x2="65.26" y2="1080"/>
  <line class="cls-1" x1="1200.9" x2="89.57" y2="1080"/>
  <line class="cls-1" x1="1225.22" x2="113.9" y2="1080"/>
  <line class="cls-1" x1="1249.54" x2="138.21" y2="1080"/>
  <line class="cls-1" x1="1273.85" x2="162.53" y2="1080"/>
  <line class="cls-1" x1="1298.17" x2="186.84" y2="1080"/>
  <line class="cls-1" x1="1322.48" x2="211.15" y2="1080"/>
  <line class="cls-1" x1="1346.81" x2="235.48" y2="1080"/>
  <line class="cls-1" x1="1371.11" x2="259.79" y2="1080"/>
  <line class="cls-1" x1="1395.43" x2="284.11" y2="1080"/>
  <line class="cls-1" x1="1419.75" x2="308.42" y2="1080"/>
  <line class="cls-1" x1="1444.07" x2="332.74" y2="1080"/>
  <line class="cls-1" x1="1468.38" x2="357.06" y2="1080"/>
  <line class="cls-1" x1="1492.7" x2="381.37" y2="1080"/>
  <line class="cls-1" x1="1517.02" x2="405.69" y2="1080"/>
  <line class="cls-1" x1="1541.33" x2="430" y2="1080"/>
  <line class="cls-1" x1="1565.65" x2="454.33" y2="1080"/>
  <line class="cls-1" x1="1589.96" x2="478.64" y2="1080"/>
  <line class="cls-1" x1="1614.28" x2="502.96" y2="1080"/>
  <line class="cls-1" x1="1638.6" x2="527.27" y2="1080"/>
  <line class="cls-1" x1="1662.91" x2="551.59" y2="1080"/>
  <line class="cls-1" x1="1687.23" x2="575.91" y2="1080"/>
  <line class="cls-1" x1="1711.55" x2="600.22" y2="1080"/>
  <line class="cls-1" x1="1735.87" x2="624.54" y2="1080"/>
  <line class="cls-1" x1="1760.17" x2="648.85" y2="1080"/>
  <line class="cls-1" x1="1784.49" x2="673.17" y2="1080"/>
  <line class="cls-1" x1="1808.81" x2="697.48" y2="1080"/>
  <line class="cls-1" x1="1833.13" x2="721.8" y2="1080"/>
  <line class="cls-1" x1="1857.45" x2="746.12" y2="1080"/>
  <line class="cls-1" x1="1881.76" x2="770.44" y2="1080"/>
  <line class="cls-1" x1="1906.08" x2="794.75" y2="1080"/>
  <line class="cls-1" x1="1920" y1="10.1" x2="819.06" y2="1080"/>
  <line class="cls-1" x1="1920" y1="33.74" x2="843.39" y2="1080"/>
  <line class="cls-1" x1="1920" y1="57.36" x2="867.7" y2="1080"/>
  <line class="cls-1" x1="1920" y1="80.99" x2="892.02" y2="1080"/>
  <line class="cls-1" x1="1920" y1="104.62" x2="916.33" y2="1080"/>
  <line class="cls-1" x1="1920" y1="128.26" x2="940.65" y2="1080"/>
  <line class="cls-1" x1="1920" y1="151.89" x2="964.97" y2="1080"/>
  <line class="cls-1" x1="1920" y1="175.52" x2="989.28" y2="1080"/>
  <line class="cls-1" x1="1920" y1="199.15" x2="1013.6" y2="1080"/>
  <line class="cls-1" x1="1920" y1="222.77" x2="1037.91" y2="1080"/>
  <line class="cls-1" x1="1920" y1="246.41" x2="1062.23" y2="1080"/>
  <line class="cls-1" x1="1920" y1="270.04" x2="1086.55" y2="1080"/>
  <line class="cls-1" x1="1920" y1="293.67" x2="1110.87" y2="1080"/>
  <line class="cls-1" x1="1920" y1="317.3" x2="1135.18" y2="1080"/>
  <line class="cls-1" x1="1920" y1="340.94" x2="1159.5" y2="1080"/>
  <line class="cls-1" x1="1920" y1="364.57" x2="1183.82" y2="1080"/>
  <line class="cls-1" x1="1920" y1="388.19" x2="1208.12" y2="1080"/>
  <line class="cls-1" x1="1920" y1="411.83" x2="1232.45" y2="1080"/>
  <line class="cls-1" x1="1920" y1="435.45" x2="1256.76" y2="1080"/>
  <line class="cls-1" x1="1920" y1="459.09" x2="1281.08" y2="1080"/>
  <line class="cls-1" x1="1920" y1="482.72" x2="1305.39" y2="1080"/>
  <line class="cls-1" x1="1920" y1="506.35" x2="1329.71" y2="1080"/>
  <line class="cls-1" x1="1920" y1="529.98" x2="1354.03" y2="1080"/>
  <line class="cls-1" x1="1920" y1="553.61" x2="1378.34" y2="1080"/>
  <line class="cls-1" x1="1920" y1="577.25" x2="1402.67" y2="1080"/>
  <line class="cls-1" x1="1920" y1="600.87" x2="1426.97" y2="1080"/>
  <line class="cls-1" x1="1920" y1="624.51" x2="1451.3" y2="1080"/>
  <line class="cls-1" x1="1920" y1="648.13" x2="1475.61" y2="1080"/>
  <line class="cls-1" x1="1920" y1="671.77" x2="1499.93" y2="1080"/>
  <line class="cls-1" x1="1920" y1="695.4" x2="1524.24" y2="1080"/>
  <line class="cls-1" x1="1920" y1="719.03" x2="1548.56" y2="1080"/>
  <line class="cls-1" x1="1920" y1="742.66" x2="1572.88" y2="1080"/>
  <line class="cls-1" x1="1920" y1="766.29" x2="1597.19" y2="1080"/>
  <line class="cls-1" x1="1920" y1="789.93" x2="1621.51" y2="1080"/>
  <line class="cls-1" x1="1920" y1="813.55" x2="1645.82" y2="1080"/>
  <line class="cls-1" x1="1920" y1="837.18" x2="1670.14" y2="1080"/>
  <line class="cls-1" x1="1920" y1="860.81" x2="1694.46" y2="1080"/>
  <line class="cls-1" x1="1920" y1="884.45" x2="1718.77" y2="1080"/>
  <line class="cls-1" x1="1920" y1="908.08" x2="1743.09" y2="1080"/>
  <line class="cls-1" x1="1920" y1="931.71" x2="1767.41" y2="1080"/>
  <line class="cls-1" x1="1920" y1="955.34" x2="1791.73" y2="1080"/>
  <line class="cls-1" x1="1920" y1="978.96" x2="1816.03" y2="1080"/>
  <line class="cls-1" x1="1920" y1="1002.61" x2="1840.36" y2="1080"/>
  <line class="cls-1" x1="1920" y1="1026.23" x2="1864.67" y2="1080"/>
  <line class="cls-1" x1="1920" y1="1049.86" x2="1888.99" y2="1080"/>
</svg>
