<svg id="Layer_1" data-name="Layer 1" xmlns="http://www.w3.org/2000/svg" width="1920" height="1080" viewBox="0 0 1920 1080">
  <defs>
    <style>
      .cls-1 {
        fill: none;
        stroke: #1a1a1a;
        stroke-miterlimit: 10;
        stroke-width: 2px;
      }
    </style>
  </defs>
  <rect width="1920" height="1080"/>
  <line class="cls-1" x1="8.06" y2="9"/>
  <line class="cls-1" x1="16.65" y2="18.61"/>
  <line class="cls-1" x1="25.24" y2="28.2"/>
  <line class="cls-1" x1="33.84" y2="37.8"/>
  <line class="cls-1" x1="42.43" y2="47.4"/>
  <line class="cls-1" x1="51.03" y2="57.01"/>
  <line class="cls-1" x1="59.62" y2="66.6"/>
  <line class="cls-1" x1="68.21" y2="76.2"/>
  <line class="cls-1" x1="76.8" y2="85.81"/>
  <line class="cls-1" x1="85.39" y2="95.4"/>
  <line class="cls-1" x1="93.99" y2="105.01"/>
  <line class="cls-1" x1="102.58" y2="114.6"/>
  <line class="cls-1" x1="111.18" y2="124.21"/>
  <line class="cls-1" x1="119.77" y2="133.8"/>
  <line class="cls-1" x1="128.36" y2="143.41"/>
  <line class="cls-1" x1="136.95" y2="153.01"/>
  <line class="cls-1" x1="145.55" y2="162.61"/>
  <line class="cls-1" x1="154.14" y2="172.21"/>
  <line class="cls-1" x1="162.73" y2="181.81"/>
  <line class="cls-1" x1="171.33" y2="191.41"/>
  <line class="cls-1" x1="179.92" y2="201.01"/>
  <line class="cls-1" x1="188.51" y2="210.61"/>
  <line class="cls-1" x1="197.1" y2="220.21"/>
  <line class="cls-1" x1="205.7" y2="229.81"/>
  <line class="cls-1" x1="214.29" y2="239.41"/>
  <line class="cls-1" x1="222.88" y2="249.01"/>
  <line class="cls-1" x1="231.47" y2="258.61"/>
  <line class="cls-1" x1="240.07" y2="268.21"/>
  <line class="cls-1" x1="248.66" y2="277.81"/>
  <line class="cls-1" x1="257.25" y2="287.41"/>
  <line class="cls-1" x1="265.85" y2="297.01"/>
  <line class="cls-1" x1="274.44" y2="306.61"/>
  <line class="cls-1" x1="283.03" y2="316.21"/>
  <line class="cls-1" x1="291.63" y2="325.81"/>
  <line class="cls-1" x1="300.22" y2="335.41"/>
  <line class="cls-1" x1="308.81" y2="345.01"/>
  <line class="cls-1" x1="317.4" y2="354.61"/>
  <line class="cls-1" x1="326" y2="364.21"/>
  <line class="cls-1" x1="334.59" y2="373.81"/>
  <line class="cls-1" x1="343.19" y2="383.41"/>
  <line class="cls-1" x1="351.78" y2="393.02"/>
  <line class="cls-1" x1="360.37" y2="402.61"/>
  <line class="cls-1" x1="368.96" y2="412.21"/>
  <line class="cls-1" x1="377.56" y2="421.81"/>
  <line class="cls-1" x1="386.15" y2="431.41"/>
  <line class="cls-1" x1="394.74" y2="441.01"/>
  <line class="cls-1" x1="403.34" y2="450.61"/>
  <line class="cls-1" x1="411.93" y2="460.22"/>
  <line class="cls-1" x1="420.52" y2="469.81"/>
  <line class="cls-1" x1="429.11" y2="479.41"/>
  <line class="cls-1" x1="437.71" y2="489.01"/>
  <line class="cls-1" x1="446.3" y2="498.61"/>
  <line class="cls-1" x1="454.89" y2="508.21"/>
  <line class="cls-1" x1="463.49" y2="517.82"/>
  <line class="cls-1" x1="472.08" y2="527.42"/>
  <line class="cls-1" x1="480.67" y2="537.01"/>
  <line class="cls-1" x1="489.27" y2="546.62"/>
  <line class="cls-1" x1="497.86" y2="556.21"/>
  <line class="cls-1" x1="506.45" y2="565.81"/>
  <line class="cls-1" x1="515.04" y2="575.41"/>
  <line class="cls-1" x1="523.64" y2="585.02"/>
  <line class="cls-1" x1="532.23" y2="594.62"/>
  <line class="cls-1" x1="540.82" y2="604.22"/>
  <line class="cls-1" x1="549.42" y2="613.82"/>
  <line class="cls-1" x1="558.01" y2="623.41"/>
  <line class="cls-1" x1="566.6" y2="633.02"/>
  <line class="cls-1" x1="575.2" y2="642.62"/>
  <line class="cls-1" x1="583.79" y2="652.22"/>
  <line class="cls-1" x1="592.38" y2="661.82"/>
  <line class="cls-1" x1="600.97" y2="671.42"/>
  <line class="cls-1" x1="609.57" y2="681.02"/>
  <line class="cls-1" x1="618.16" y2="690.61"/>
  <line class="cls-1" x1="626.75" y2="700.22"/>
  <line class="cls-1" x1="635.35" y2="709.82"/>
  <line class="cls-1" x1="643.94" y2="719.42"/>
  <line class="cls-1" x1="652.53" y2="729.02"/>
  <line class="cls-1" x1="661.13" y2="738.62"/>
  <line class="cls-1" x1="669.72" y2="748.22"/>
  <line class="cls-1" x1="678.31" y2="757.81"/>
  <line class="cls-1" x1="686.91" y2="767.42"/>
  <line class="cls-1" x1="695.5" y2="777.02"/>
  <line class="cls-1" x1="704.09" y2="786.62"/>
  <line class="cls-1" x1="712.68" y2="796.22"/>
  <line class="cls-1" x1="721.28" y2="805.82"/>
  <line class="cls-1" x1="729.87" y2="815.42"/>
  <line class="cls-1" x1="738.46" y2="825.02"/>
  <line class="cls-1" x1="747.06" y2="834.62"/>
  <line class="cls-1" x1="755.65" y2="844.22"/>
  <line class="cls-1" x1="764.24" y2="853.82"/>
  <line class="cls-1" x1="772.83" y2="863.42"/>
  <line class="cls-1" x1="781.43" y2="873.02"/>
  <line class="cls-1" x1="790.02" y2="882.62"/>
  <line class="cls-1" x1="798.61" y2="892.22"/>
  <line class="cls-1" x1="807.21" y2="901.83"/>
  <line class="cls-1" x1="815.8" y2="911.42"/>
  <line class="cls-1" x1="824.39" y2="921.02"/>
  <line class="cls-1" x1="832.98" y2="930.62"/>
  <line class="cls-1" x1="841.58" y2="940.22"/>
  <line class="cls-1" x1="850.17" y2="949.82"/>
  <line class="cls-1" x1="858.77" y2="959.43"/>
  <line class="cls-1" x1="867.36" y2="969.03"/>
  <line class="cls-1" x1="875.95" y2="978.63"/>
  <line class="cls-1" x1="884.54" y2="988.23"/>
  <line class="cls-1" x1="893.13" y2="997.82"/>
  <line class="cls-1" x1="901.73" y2="1007.42"/>
  <line class="cls-1" x1="910.32" y2="1017.03"/>
  <line class="cls-1" x1="918.92" y2="1026.63"/>
  <line class="cls-1" x1="927.51" y2="1036.23"/>
  <line class="cls-1" x1="936.1" y2="1045.83"/>
  <line class="cls-1" x1="944.69" y2="1055.43"/>
  <line class="cls-1" x1="953.28" y2="1065.02"/>
  <line class="cls-1" x1="961.88" y2="1074.62"/>
  <line class="cls-1" x1="970.47" x2="3.78" y2="1080"/>
  <line class="cls-1" x1="979.07" x2="12.38" y2="1080"/>
  <line class="cls-1" x1="987.66" x2="20.97" y2="1080"/>
  <line class="cls-1" x1="996.25" x2="29.56" y2="1080"/>
  <line class="cls-1" x1="1004.84" x2="38.16" y2="1080"/>
  <line class="cls-1" x1="1013.43" x2="46.74" y2="1080"/>
  <line class="cls-1" x1="1022.03" x2="55.35" y2="1080"/>
  <line class="cls-1" x1="1030.62" x2="63.93" y2="1080"/>
  <line class="cls-1" x1="1039.22" x2="72.53" y2="1080"/>
  <line class="cls-1" x1="1047.81" x2="81.12" y2="1080"/>
  <line class="cls-1" x1="1056.4" x2="89.71" y2="1080"/>
  <line class="cls-1" x1="1064.99" x2="98.31" y2="1080"/>
  <line class="cls-1" x1="1073.59" x2="106.9" y2="1080"/>
  <line class="cls-1" x1="1082.18" x2="115.5" y2="1080"/>
  <line class="cls-1" x1="1090.77" x2="124.08" y2="1080"/>
  <line class="cls-1" x1="1099.37" x2="132.68" y2="1080"/>
  <line class="cls-1" x1="1107.96" x2="141.27" y2="1080"/>
  <line class="cls-1" x1="1116.55" x2="149.86" y2="1080"/>
  <line class="cls-1" x1="1125.14" x2="158.46" y2="1080"/>
  <line class="cls-1" x1="1133.74" x2="167.05" y2="1080"/>
  <line class="cls-1" x1="1142.33" x2="175.65" y2="1080"/>
  <line class="cls-1" x1="1150.92" x2="184.23" y2="1080"/>
  <line class="cls-1" x1="1159.52" x2="192.83" y2="1080"/>
  <line class="cls-1" x1="1168.11" x2="201.42" y2="1080"/>
  <line class="cls-1" x1="1176.7" x2="210.01" y2="1080"/>
  <line class="cls-1" x1="1185.29" x2="218.61" y2="1080"/>
  <line class="cls-1" x1="1193.89" x2="227.2" y2="1080"/>
  <line class="cls-1" x1="1202.48" x2="235.79" y2="1080"/>
  <line class="cls-1" x1="1211.07" x2="244.38" y2="1080"/>
  <line class="cls-1" x1="1219.67" x2="252.98" y2="1080"/>
  <line class="cls-1" x1="1228.26" x2="261.57" y2="1080"/>
  <line class="cls-1" x1="1236.85" x2="270.16" y2="1080"/>
  <line class="cls-1" x1="1245.44" x2="278.76" y2="1080"/>
  <line class="cls-1" x1="1254.04" x2="287.35" y2="1080"/>
  <line class="cls-1" x1="1262.63" x2="295.94" y2="1080"/>
  <line class="cls-1" x1="1271.22" x2="304.54" y2="1080"/>
  <line class="cls-1" x1="1279.82" x2="313.13" y2="1080"/>
  <line class="cls-1" x1="1288.41" x2="321.72" y2="1080"/>
  <line class="cls-1" x1="1297" x2="330.31" y2="1080"/>
  <line class="cls-1" x1="1305.6" x2="338.91" y2="1080"/>
  <line class="cls-1" x1="1314.19" x2="347.5" y2="1080"/>
  <line class="cls-1" x1="1322.78" x2="356.09" y2="1080"/>
  <line class="cls-1" x1="1331.37" x2="364.69" y2="1080"/>
  <line class="cls-1" x1="1339.97" x2="373.28" y2="1080"/>
  <line class="cls-1" x1="1348.56" x2="381.87" y2="1080"/>
  <line class="cls-1" x1="1357.15" x2="390.46" y2="1080"/>
  <line class="cls-1" x1="1365.75" x2="399.06" y2="1080"/>
  <line class="cls-1" x1="1374.34" x2="407.65" y2="1080"/>
  <line class="cls-1" x1="1382.93" x2="416.24" y2="1080"/>
  <line class="cls-1" x1="1391.52" x2="424.84" y2="1080"/>
  <line class="cls-1" x1="1400.12" x2="433.43" y2="1080"/>
  <line class="cls-1" x1="1408.71" x2="442.02" y2="1080"/>
  <line class="cls-1" x1="1417.31" x2="450.62" y2="1080"/>
  <line class="cls-1" x1="1425.9" x2="459.21" y2="1080"/>
  <line class="cls-1" x1="1434.49" x2="467.8" y2="1080"/>
  <line class="cls-1" x1="1443.08" x2="476.39" y2="1080"/>
  <line class="cls-1" x1="1451.68" x2="484.99" y2="1080"/>
  <line class="cls-1" x1="1460.27" x2="493.58" y2="1080"/>
  <line class="cls-1" x1="1468.86" x2="502.18" y2="1080"/>
  <line class="cls-1" x1="1477.46" x2="510.77" y2="1080"/>
  <line class="cls-1" x1="1486.05" x2="519.36" y2="1080"/>
  <line class="cls-1" x1="1494.64" x2="527.95" y2="1080"/>
  <line class="cls-1" x1="1503.24" x2="536.55" y2="1080"/>
  <line class="cls-1" x1="1511.83" x2="545.14" y2="1080"/>
  <line class="cls-1" x1="1520.42" x2="553.73" y2="1080"/>
  <line class="cls-1" x1="1529.01" x2="562.33" y2="1080"/>
  <line class="cls-1" x1="1537.61" x2="570.92" y2="1080"/>
  <line class="cls-1" x1="1546.2" x2="579.51" y2="1080"/>
  <line class="cls-1" x1="1554.79" x2="588.1" y2="1080"/>
  <line class="cls-1" x1="1563.39" x2="596.7" y2="1080"/>
  <line class="cls-1" x1="1571.98" x2="605.29" y2="1080"/>
  <line class="cls-1" x1="1580.57" x2="613.88" y2="1080"/>
  <line class="cls-1" x1="1589.17" x2="622.48" y2="1080"/>
  <line class="cls-1" x1="1597.76" x2="631.07" y2="1080"/>
  <line class="cls-1" x1="1606.35" x2="639.66" y2="1080"/>
  <line class="cls-1" x1="1614.95" x2="648.26" y2="1080"/>
  <line class="cls-1" x1="1623.54" x2="656.85" y2="1080"/>
  <line class="cls-1" x1="1632.13" x2="665.44" y2="1080"/>
  <line class="cls-1" x1="1640.72" x2="674.03" y2="1080"/>
  <line class="cls-1" x1="1649.32" x2="682.63" y2="1080"/>
  <line class="cls-1" x1="1657.91" x2="691.22" y2="1080"/>
  <line class="cls-1" x1="1666.5" x2="699.81" y2="1080"/>
  <line class="cls-1" x1="1675.1" x2="708.41" y2="1080"/>
  <line class="cls-1" x1="1683.69" x2="717" y2="1080"/>
  <line class="cls-1" x1="1692.28" x2="725.59" y2="1080"/>
  <line class="cls-1" x1="1700.88" x2="734.19" y2="1080"/>
  <line class="cls-1" x1="1709.47" x2="742.78" y2="1080"/>
  <line class="cls-1" x1="1718.06" x2="751.37" y2="1080"/>
  <line class="cls-1" x1="1726.65" x2="759.96" y2="1080"/>
  <line class="cls-1" x1="1735.25" x2="768.56" y2="1080"/>
  <line class="cls-1" x1="1743.84" x2="777.15" y2="1080"/>
  <line class="cls-1" x1="1752.43" x2="785.74" y2="1080"/>
  <line class="cls-1" x1="1761.03" x2="794.34" y2="1080"/>
  <line class="cls-1" x1="1769.62" x2="802.93" y2="1080"/>
  <line class="cls-1" x1="1778.21" x2="811.52" y2="1080"/>
  <line class="cls-1" x1="1786.81" x2="820.12" y2="1080"/>
  <line class="cls-1" x1="1795.4" x2="828.71" y2="1080"/>
  <line class="cls-1" x1="1803.99" x2="837.3" y2="1080"/>
  <line class="cls-1" x1="1812.58" x2="845.9" y2="1080"/>
  <line class="cls-1" x1="1821.18" x2="854.49" y2="1080"/>
  <line class="cls-1" x1="1829.77" x2="863.08" y2="1080"/>
  <line class="cls-1" x1="1838.36" x2="871.67" y2="1080"/>
  <line class="cls-1" x1="1846.96" x2="880.27" y2="1080"/>
  <line class="cls-1" x1="1855.54" x2="888.86" y2="1080"/>
  <line class="cls-1" x1="1864.14" x2="897.45" y2="1080"/>
  <line class="cls-1" x1="1872.73" x2="906.05" y2="1080"/>
  <line class="cls-1" x1="1881.33" x2="914.64" y2="1080"/>
  <line class="cls-1" x1="1889.92" x2="923.23" y2="1080"/>
  <line class="cls-1" x1="1898.51" x2="931.82" y2="1080"/>
  <line class="cls-1" x1="1907.11" x2="940.42" y2="1080"/>
  <line class="cls-1" x1="1915.69" x2="949.01" y2="1080"/>
  <line class="cls-1" x1="1920" y1="4.79" x2="957.6" y2="1080"/>
  <line class="cls-1" x1="1920" y1="14.39" x2="966.2" y2="1080"/>
  <line class="cls-1" x1="1920" y1="23.99" x2="974.79" y2="1080"/>
  <line class="cls-1" x1="1920" y1="33.59" x2="983.38" y2="1080"/>
  <line class="cls-1" x1="1920" y1="43.2" x2="991.97" y2="1080"/>
  <line class="cls-1" x1="1920" y1="52.8" x2="1000.57" y2="1080"/>
  <line class="cls-1" x1="1920" y1="62.39" x2="1009.16" y2="1080"/>
  <line class="cls-1" x1="1920" y1="72" x2="1017.76" y2="1080"/>
  <line class="cls-1" x1="1920" y1="81.59" x2="1026.35" y2="1080"/>
  <line class="cls-1" x1="1920" y1="91.19" x2="1034.94" y2="1080"/>
  <line class="cls-1" x1="1920" y1="100.8" x2="1043.53" y2="1080"/>
  <line class="cls-1" x1="1920" y1="110.4" x2="1052.12" y2="1080"/>
  <line class="cls-1" x1="1920" y1="120" x2="1060.72" y2="1080"/>
  <line class="cls-1" x1="1920" y1="129.6" x2="1069.31" y2="1080"/>
  <line class="cls-1" x1="1920" y1="139.2" x2="1077.91" y2="1080"/>
  <line class="cls-1" x1="1920" y1="148.79" x2="1086.5" y2="1080"/>
  <line class="cls-1" x1="1920" y1="158.4" x2="1095.09" y2="1080"/>
  <line class="cls-1" x1="1920" y1="168" x2="1103.68" y2="1080"/>
  <line class="cls-1" x1="1920" y1="177.6" x2="1112.27" y2="1080"/>
  <line class="cls-1" x1="1920" y1="187.2" x2="1120.87" y2="1080"/>
  <line class="cls-1" x1="1920" y1="196.8" x2="1129.46" y2="1080"/>
  <line class="cls-1" x1="1920" y1="206.4" x2="1138.06" y2="1080"/>
  <line class="cls-1" x1="1920" y1="215.99" x2="1146.65" y2="1080"/>
  <line class="cls-1" x1="1920" y1="225.6" x2="1155.24" y2="1080"/>
  <line class="cls-1" x1="1920" y1="235.2" x2="1163.83" y2="1080"/>
  <line class="cls-1" x1="1920" y1="244.8" x2="1172.42" y2="1080"/>
  <line class="cls-1" x1="1920" y1="254.4" x2="1181.02" y2="1080"/>
  <line class="cls-1" x1="1920" y1="264" x2="1189.61" y2="1080"/>
  <line class="cls-1" x1="1920" y1="273.6" x2="1198.21" y2="1080"/>
  <line class="cls-1" x1="1920" y1="283.2" x2="1206.8" y2="1080"/>
  <line class="cls-1" x1="1920" y1="292.8" x2="1215.39" y2="1080"/>
  <line class="cls-1" x1="1920" y1="302.4" x2="1223.98" y2="1080"/>
  <line class="cls-1" x1="1920" y1="312" x2="1232.58" y2="1080"/>
  <line class="cls-1" x1="1920" y1="321.6" x2="1241.17" y2="1080"/>
  <line class="cls-1" x1="1920" y1="331.2" x2="1249.76" y2="1080"/>
  <line class="cls-1" x1="1920" y1="340.8" x2="1258.36" y2="1080"/>
  <line class="cls-1" x1="1920" y1="350.4" x2="1266.95" y2="1080"/>
  <line class="cls-1" x1="1920" y1="360.01" x2="1275.54" y2="1080"/>
  <line class="cls-1" x1="1920" y1="369.6" x2="1284.13" y2="1080"/>
  <line class="cls-1" x1="1920" y1="379.2" x2="1292.73" y2="1080"/>
  <line class="cls-1" x1="1920" y1="388.8" x2="1301.32" y2="1080"/>
  <line class="cls-1" x1="1920" y1="398.4" x2="1309.91" y2="1080"/>
  <line class="cls-1" x1="1920" y1="408" x2="1318.51" y2="1080"/>
  <line class="cls-1" x1="1920" y1="417.6" x2="1327.1" y2="1080"/>
  <line class="cls-1" x1="1920" y1="427.21" x2="1335.69" y2="1080"/>
  <line class="cls-1" x1="1920" y1="436.8" x2="1344.28" y2="1080"/>
  <line class="cls-1" x1="1920" y1="446.4" x2="1352.88" y2="1080"/>
  <line class="cls-1" x1="1920" y1="456" x2="1361.47" y2="1080"/>
  <line class="cls-1" x1="1920" y1="465.6" x2="1370.06" y2="1080"/>
  <line class="cls-1" x1="1920" y1="475.21" x2="1378.66" y2="1080"/>
  <line class="cls-1" x1="1920" y1="484.8" x2="1387.25" y2="1080"/>
  <line class="cls-1" x1="1920" y1="494.41" x2="1395.84" y2="1080"/>
  <line class="cls-1" x1="1920" y1="504" x2="1404.43" y2="1080"/>
  <line class="cls-1" x1="1920" y1="513.61" x2="1413.03" y2="1080"/>
  <line class="cls-1" x1="1920" y1="523.2" x2="1421.62" y2="1080"/>
  <line class="cls-1" x1="1920" y1="532.8" x2="1430.22" y2="1080"/>
  <line class="cls-1" x1="1920" y1="542.41" x2="1438.81" y2="1080"/>
  <line class="cls-1" x1="1920" y1="552" x2="1447.4" y2="1080"/>
  <line class="cls-1" x1="1920" y1="561.61" x2="1455.99" y2="1080"/>
  <line class="cls-1" x1="1920" y1="571.21" x2="1464.59" y2="1080"/>
  <line class="cls-1" x1="1920" y1="580.81" x2="1473.18" y2="1080"/>
  <line class="cls-1" x1="1920" y1="590.4" x2="1481.77" y2="1080"/>
  <line class="cls-1" x1="1920" y1="600" x2="1490.37" y2="1080"/>
  <line class="cls-1" x1="1920" y1="609.61" x2="1498.96" y2="1080"/>
  <line class="cls-1" x1="1920" y1="619.2" x2="1507.55" y2="1080"/>
  <line class="cls-1" x1="1920" y1="628.81" x2="1516.14" y2="1080"/>
  <line class="cls-1" x1="1920" y1="638.41" x2="1524.74" y2="1080"/>
  <line class="cls-1" x1="1920" y1="648.01" x2="1533.33" y2="1080"/>
  <line class="cls-1" x1="1920" y1="657.6" x2="1541.92" y2="1080"/>
  <line class="cls-1" x1="1920" y1="667.21" x2="1550.52" y2="1080"/>
  <line class="cls-1" x1="1920" y1="676.81" x2="1559.11" y2="1080"/>
  <line class="cls-1" x1="1920" y1="686.41" x2="1567.7" y2="1080"/>
  <line class="cls-1" x1="1920" y1="696.01" x2="1576.3" y2="1080"/>
  <line class="cls-1" x1="1920" y1="705.61" x2="1584.89" y2="1080"/>
  <line class="cls-1" x1="1920" y1="715.21" x2="1593.48" y2="1080"/>
  <line class="cls-1" x1="1920" y1="724.8" x2="1602.07" y2="1080"/>
  <line class="cls-1" x1="1920" y1="734.41" x2="1610.67" y2="1080"/>
  <line class="cls-1" x1="1920" y1="744.01" x2="1619.26" y2="1080"/>
  <line class="cls-1" x1="1920" y1="753.61" x2="1627.85" y2="1080"/>
  <line class="cls-1" x1="1920" y1="763.21" x2="1636.45" y2="1080"/>
  <line class="cls-1" x1="1920" y1="772.81" x2="1645.04" y2="1080"/>
  <line class="cls-1" x1="1920" y1="782.41" x2="1653.63" y2="1080"/>
  <line class="cls-1" x1="1920" y1="792.01" x2="1662.23" y2="1080"/>
  <line class="cls-1" x1="1920" y1="801.61" x2="1670.82" y2="1080"/>
  <line class="cls-1" x1="1920" y1="811.21" x2="1679.41" y2="1080"/>
  <line class="cls-1" x1="1920" y1="820.81" x2="1688" y2="1080"/>
  <line class="cls-1" x1="1920" y1="830.41" x2="1696.6" y2="1080"/>
  <line class="cls-1" x1="1920" y1="840.01" x2="1705.19" y2="1080"/>
  <line class="cls-1" x1="1920" y1="849.61" x2="1713.78" y2="1080"/>
  <line class="cls-1" x1="1920" y1="859.21" x2="1722.38" y2="1080"/>
  <line class="cls-1" x1="1920" y1="868.81" x2="1730.97" y2="1080"/>
  <line class="cls-1" x1="1920" y1="878.41" x2="1739.56" y2="1080"/>
  <line class="cls-1" x1="1920" y1="888.02" x2="1748.16" y2="1080"/>
  <line class="cls-1" x1="1920" y1="897.61" x2="1756.75" y2="1080"/>
  <line class="cls-1" x1="1920" y1="907.21" x2="1765.34" y2="1080"/>
  <line class="cls-1" x1="1920" y1="916.82" x2="1773.94" y2="1080"/>
  <line class="cls-1" x1="1920" y1="926.41" x2="1782.53" y2="1080"/>
  <line class="cls-1" x1="1920" y1="936.01" x2="1791.12" y2="1080"/>
  <line class="cls-1" x1="1920" y1="945.61" x2="1799.71" y2="1080"/>
  <line class="cls-1" x1="1920" y1="955.22" x2="1808.31" y2="1080"/>
  <line class="cls-1" x1="1920" y1="964.81" x2="1816.9" y2="1080"/>
  <line class="cls-1" x1="1920" y1="974.41" x2="1825.49" y2="1080"/>
  <line class="cls-1" x1="1920" y1="984.02" x2="1834.09" y2="1080"/>
  <line class="cls-1" x1="1920" y1="993.61" x2="1842.68" y2="1080"/>
  <line class="cls-1" x1="1920" y1="1003.21" x2="1851.27" y2="1080"/>
  <line class="cls-1" x1="1920" y1="1012.82" x2="1859.86" y2="1080"/>
  <line class="cls-1" x1="1920" y1="1022.42" x2="1868.46" y2="1080"/>
  <line class="cls-1" x1="1920" y1="1032.01" x2="1877.05" y2="1080"/>
  <line class="cls-1" x1="1920" y1="1041.61" x2="1885.64" y2="1080"/>
  <line class="cls-1" x1="1920" y1="1051.22" x2="1894.24" y2="1080"/>
  <line class="cls-1" x1="1920" y1="1060.81" x2="1902.83" y2="1080"/>
  <line class="cls-1" x1="1920" y1="1070.41" x2="1911.42" y2="1080"/>
</svg>
